<svg width="24" height="24" viewBox="0 0 24 24" fill="none" xmlns="http://www.w3.org/2000/svg">
<g clip-path="url(#clip0_1_119)">
<rect width="24" height="24" rx="12" fill="white"/>
<path d="M-6 24H30V0H-6V24Z" fill="#005430"/>
<path d="M21 9.53291C20.9975 9.11131 20.8339 7.97568 20.7924 7.5947C20.751 7.21373 20.7093 6.8681 20.7193 6.78717C20.7292 6.70907 20.8494 6.89576 20.9129 6.91085C20.9458 6.90426 20.9311 6.78636 20.8714 6.68567C20.831 6.61729 20.6932 6.36162 20.6096 6.2118C20.5702 6.14089 20.5615 6.09977 20.5425 6.09106C20.5237 6.08234 20.3715 6.38937 20.3881 6.42341C20.4297 6.48581 20.4581 6.51559 20.4646 6.6258C20.4712 6.73601 20.5282 7.52288 20.6008 8.11932C20.6555 8.56928 20.7754 9.53868 20.7797 10.1414C20.7809 10.338 20.7591 10.5254 20.7329 10.6037C20.6658 10.7267 20.5608 10.8376 20.1699 11.0663C19.7304 11.3235 19.1442 11.5376 18.8922 11.6808C18.7355 11.7701 18.7874 11.7821 18.9238 11.743C19.0599 11.7039 19.7635 11.5786 20.1054 11.4341C20.4263 11.2982 20.6345 11.0708 20.7926 10.739C20.9879 10.3289 21.0028 9.98084 21 9.53291Z" fill="white"/>
<path d="M19.6395 6.33039C19.6735 6.31722 19.9547 6.30274 20.0304 6.31834C19.9807 6.38945 19.6435 6.54686 19.642 6.57573C19.6512 6.59518 19.875 6.53977 19.9455 6.50898C19.9917 6.48122 20.0224 6.43827 20.0566 6.40261C20.1373 6.30983 20.2329 6.13772 20.2088 6.11615C20.1697 6.0813 19.7863 6.10298 19.7358 6.11017C19.702 6.11503 19.6161 6.269 19.6003 6.30851C19.5848 6.34802 19.6056 6.34356 19.6395 6.33039Z" fill="white"/>
<path d="M20.2141 8.82927C20.2727 8.63072 20.2872 8.38984 20.2074 8.1363C20.1255 7.87526 19.9219 7.71612 19.7751 7.63458L19.7489 7.88589C19.7489 7.88589 19.9548 7.9882 20.0956 8.2458C20.1847 8.40919 20.2219 8.64025 20.1514 8.89784C20.1397 8.96176 20.1854 8.92651 20.2141 8.82927Z" fill="white"/>
<path d="M18.036 10.0896C18.0888 9.91078 18.1018 9.6939 18.0301 9.46558C17.9563 9.23047 17.773 9.08714 17.6407 9.014L17.6171 9.2402C17.6171 9.2402 17.8024 9.33238 17.9292 9.56414C18.0096 9.71112 18.0429 9.91949 17.9797 10.1514C17.9692 10.2087 18.0103 10.1771 18.036 10.0896Z" fill="white"/>
<path d="M10.4745 6.66763C10.5593 6.82272 10.5945 7.04233 10.5277 7.28696C10.5166 7.34763 10.5597 7.31431 10.5872 7.22193C10.6427 7.03351 10.6565 6.80458 10.5807 6.5636C10.5028 6.31552 10.3094 6.16449 10.1699 6.0872L10.1453 6.32586C10.1453 6.32586 10.3408 6.423 10.4745 6.66763Z" fill="white"/>
<path d="M5.37005 6.74785C5.44127 6.91479 5.44609 7.14017 5.33105 7.37761C5.3087 7.43727 5.36315 7.40901 5.40884 7.31977C5.50218 7.13733 5.55455 6.90901 5.50722 6.65678C5.45869 6.39746 5.26388 6.2207 5.11806 6.12498L5.05188 6.36191C5.05188 6.36191 5.25775 6.48468 5.37005 6.74785Z" fill="white"/>
<path d="M6.7811 10.4793C6.8716 10.3113 6.90929 10.1983 6.9495 9.99931C6.98467 9.82427 6.98697 9.62209 6.97426 9.41625C7.2451 9.30584 7.56787 9.12259 7.67634 9.10912C7.60216 9.36378 7.77922 9.6386 8.13683 9.60274C8.16422 9.89072 8.18767 10.1437 8.20191 10.2937C8.23105 10.6012 8.22667 10.9888 8.2258 11.0561C8.22459 11.1238 8.27357 11.111 8.32385 10.9603C8.39091 10.7585 8.41161 10.2316 8.38729 9.88313C8.38148 9.79601 8.37162 9.67841 8.35968 9.54439C8.59152 9.43712 8.63008 9.23007 8.71675 9.14184C8.79498 9.41585 9.22556 9.45302 9.35846 9.39437C9.52324 9.32154 9.57726 9.19056 9.61966 8.88657C9.66217 8.58268 9.53836 8.46032 9.4941 8.42719C9.48971 8.46396 9.3819 8.82113 9.3819 8.82113C9.3819 8.82113 9.48413 8.92912 9.48928 8.9822C9.40601 9.05756 9.23038 9.06222 9.08291 9.0142C8.93533 8.96619 8.89008 8.87786 8.89884 8.8186C8.90739 8.75914 8.96294 8.70505 8.9648 8.63262C8.96644 8.56019 8.93171 8.58116 8.87266 8.64528C8.8136 8.70951 8.77547 8.76724 8.69374 8.90511C8.62691 9.01785 8.51844 9.15541 8.32714 9.19472C8.29559 8.86368 8.25954 8.51147 8.23544 8.29024C8.22284 8.17344 8.09695 7.16413 8.08797 7.05118C8.08019 6.95282 8.06561 6.83684 8.06803 6.78234C8.07044 6.73898 8.09761 6.7562 8.13968 6.80159C8.18186 6.84687 8.2556 6.92588 8.26831 6.9197C8.31125 6.89863 8.26732 6.76745 8.21111 6.64994C8.15502 6.53214 7.9635 6.06739 7.92329 6.04824C7.90258 6.03852 7.7733 6.32458 7.76563 6.3809C7.78568 6.41615 7.83805 6.47156 7.83991 6.62918C7.84057 6.67314 7.86884 7.08765 7.90806 7.47956C7.94236 7.82569 7.98782 8.1541 7.99221 8.19229C8.02343 8.45647 8.06134 8.82883 8.09739 9.19492C7.88977 9.15541 7.83455 9.01846 7.83915 8.94036C7.84441 8.85223 7.88418 8.75276 7.86511 8.73027C7.82512 8.70626 7.58715 8.83927 7.25529 8.9822C7.16194 9.02231 7.05676 9.06536 6.94577 9.10618C6.91685 8.85669 6.87872 8.61945 6.86338 8.43803L6.86152 8.41787C7.07977 8.40379 7.25846 8.29358 7.33976 8.18864C7.44132 8.05746 7.51232 7.7875 7.51922 7.58066C7.52613 7.37361 7.35904 6.99506 7.31927 6.87472C7.27917 6.75428 7.25846 6.67081 7.25496 6.62918C7.25134 6.58755 7.34524 6.6774 7.40429 6.69502C7.44428 6.70302 7.43048 6.61642 7.38161 6.55695C7.33308 6.4977 7.07056 6.0993 7.05216 6.12725C7.04087 6.14366 6.93569 6.43672 6.92879 6.48159C6.9702 6.50894 7.01863 6.5843 7.02203 6.65653C7.02553 6.72875 7.08338 7.04632 7.14748 7.22278C7.21179 7.39924 7.34874 7.73777 7.3574 7.83086C7.25956 7.89984 7.03682 8.01664 6.81649 8.00965C6.7788 7.7009 6.73103 7.34231 6.7055 7.08836C6.69564 6.9902 6.69498 6.88546 6.69652 6.83076C6.69772 6.7874 6.72895 6.79338 6.77189 6.83795C6.81506 6.88252 6.88124 6.94735 6.89482 6.94269C6.92441 6.93287 6.89877 6.83451 6.84015 6.71771C6.78154 6.60092 6.54861 6.10689 6.50774 6.08846C6.48703 6.07904 6.38273 6.35649 6.37615 6.41311C6.39697 6.44816 6.45033 6.50236 6.45559 6.65997C6.45975 6.78548 6.52089 7.40055 6.57326 7.94229C6.35523 7.82954 6.28083 7.66838 6.25388 7.39782C6.23504 7.2092 6.23317 6.86176 6.1659 6.57114C6.12799 6.40683 6.04812 6.2399 5.95346 6.15126C5.93089 6.20586 5.83009 6.54105 5.83009 6.54105C5.86296 6.63728 5.96518 6.96133 5.96168 7.24212C5.95828 7.52292 5.93615 7.79743 5.62148 7.98655C5.30704 8.17577 4.83537 8.10051 4.7189 7.80533C4.60244 7.50995 4.86134 6.76937 4.85794 6.59454C4.85443 6.4197 4.82321 6.39559 4.75013 6.42446C4.67716 6.45333 4.52783 6.62189 4.3992 6.8961C4.27057 7.17051 4.21338 7.51036 4.1403 7.74141C4.06744 7.97247 3.95076 8.20657 3.7702 8.1936C3.58964 8.18084 3.49245 8.01562 3.43691 7.77667C3.38125 7.5375 3.41532 7.22257 3.43044 7.14184C3.46813 6.93965 3.38081 6.98108 3.32734 7.29855C3.29426 7.49435 3.26139 7.80705 3.37785 8.13434C3.4941 8.46163 3.6923 8.58369 3.86596 8.54186C4.03972 8.50023 4.19245 8.09271 4.24636 7.90967C4.30015 7.72693 4.54086 6.91524 4.67716 6.87533C4.69622 6.9668 4.57121 7.26167 4.53122 7.60659C4.49134 7.9515 4.58436 8.41483 5.02217 8.49496C5.45999 8.57519 5.75701 8.29125 5.86471 8.09413C5.97252 7.8967 6.02281 7.68975 6.03497 7.58552C6.049 7.85011 6.22956 8.26329 6.58027 8.3811L6.61642 8.39154C6.63801 8.60811 6.67318 8.89083 6.7055 9.18773C6.63724 9.2088 6.56833 9.22784 6.49974 9.24425C6.49098 9.21578 6.48133 9.18793 6.46961 9.1623C6.36257 8.93205 6.1854 8.71984 5.93987 8.73453C5.68908 8.74942 5.41561 9.0841 5.42756 9.32853C5.43545 9.49293 5.52594 9.62786 5.85507 9.6624C6.00539 9.6783 6.16503 9.66159 6.32992 9.62563C6.35314 9.6936 6.36783 9.76117 6.36947 9.82275C6.26517 9.94471 5.40214 10.5956 4.75594 10.6582C4.10973 10.7207 3.91263 10.382 3.90616 10.042C3.90134 9.78325 4.05692 9.52504 4.16627 9.34636C4.32272 9.23189 4.45113 9.08876 4.53221 8.97835C4.55423 8.99192 4.57516 9.00448 4.5951 9.01613C4.67234 9.061 4.70313 9.12806 4.70313 9.12806C4.71737 9.10618 4.78376 8.98665 4.7578 8.9282C4.74586 8.91382 4.68746 8.87786 4.61723 8.83521C4.69096 8.65146 4.68998 8.46801 4.59444 8.42719C4.48762 8.38171 4.34814 8.50813 4.28799 8.58521C4.25677 8.62533 4.24482 8.67081 4.24461 8.709C4.24417 8.75813 4.26728 8.8025 4.32448 8.842C4.38145 8.8809 4.43437 8.91615 4.48411 8.94796C4.34288 9.09626 4.00915 9.31354 3.80493 9.44117C3.79737 9.42243 3.76746 9.44218 3.72725 9.48959L3.67192 9.52373C3.509 9.6234 3.1183 9.8423 3.04149 9.89589C2.96458 9.94958 3.01279 9.93985 3.04149 9.9279C3.09573 9.89862 3.16694 9.86317 3.24692 9.82407C3.36021 9.76866 3.49202 9.70596 3.62086 9.64305C3.58273 9.70768 3.54329 9.78325 3.50834 9.8657C3.35462 10.2286 3.10614 10.9809 3.64365 11.4335C4.15794 11.8667 5.0419 11.7019 5.77498 11.2516C6.50818 10.8013 6.6665 10.643 6.7811 10.4793ZM4.39087 8.68995C4.36545 8.67122 4.36195 8.64619 4.38265 8.62877C4.40906 8.60628 4.4428 8.58501 4.48115 8.57782C4.56245 8.56273 4.59488 8.65612 4.56223 8.80158C4.50043 8.7638 4.43689 8.72409 4.39087 8.68995ZM6.07244 9.30351C5.69916 9.30523 5.68196 9.23746 5.68897 9.19411C5.69588 9.15096 5.81212 9.03254 5.95959 9.11064C6.02194 9.14376 6.09217 9.21305 6.15714 9.30006C6.12843 9.30219 6.10016 9.30331 6.07244 9.30351ZM4.92915 11.2665C4.2239 11.459 3.53595 11.1608 3.49432 10.5703C3.46243 10.1195 3.62689 9.7797 3.73295 9.58825C3.83407 9.53821 3.92961 9.48959 4.00861 9.44603C3.82399 9.74334 3.71596 10.1415 3.78817 10.4789C3.8699 10.8609 4.20231 11.0926 4.76514 11.0178C5.32238 10.944 6.07584 10.414 6.28949 10.2142C6.35457 10.142 6.39752 10.077 6.45602 9.94451C6.48013 9.89012 6.51398 9.8183 6.52658 9.73716C6.5348 9.68428 6.53918 9.62776 6.54017 9.57022C6.60558 9.55067 6.67132 9.52879 6.73749 9.50529C6.75995 9.74719 6.7765 9.98564 6.77748 10.1919C6.43028 10.5991 5.63441 11.074 4.92915 11.2665Z" fill="white"/>
<path d="M17.265 9.71814C17.2411 9.32308 17.1835 8.60803 17.1513 8.24529C17.1228 7.92246 17.0668 7.47999 17.0258 7.09051C17.0155 6.99245 17.0144 6.89855 17.0155 6.84395C17.0167 6.8008 17.0599 6.81741 17.1031 6.86178C17.1462 6.90615 17.2137 6.96186 17.2264 6.95508C17.2686 6.9332 17.2181 6.82501 17.1588 6.70862C17.0996 6.59203 16.8646 6.10976 16.8237 6.09142C16.8029 6.0821 16.6928 6.371 16.6864 6.42762C16.7074 6.46247 16.7612 6.51646 16.767 6.67408C16.773 6.8318 16.8526 7.55688 16.9101 8.14328C16.95 8.5509 17.0015 9.21601 17.039 9.71753C17.0371 9.71834 17.0744 10.1943 17.0784 10.2478C17.1014 10.5558 17.0895 10.9432 17.0872 11.0105C17.0847 11.078 17.1341 11.0663 17.1871 10.9164C17.2411 10.7633 17.2719 10.4215 17.2761 10.113L17.265 9.71814Z" fill="white"/>
<path d="M15.2625 8.33515C15.1902 8.35724 15.0767 8.28076 15.0853 8.12041C15.0932 7.97555 15.1552 7.83992 15.1791 7.75432C15.212 7.63621 15.2122 7.52235 15.1844 7.58688C15.1217 7.73112 15.005 8.00999 14.9809 8.19921C14.9567 8.38844 15.0181 8.5104 15.1014 8.55203C15.2053 8.6042 15.2801 8.52144 15.3308 8.39948C15.3794 8.28268 15.3702 8.14634 15.3365 8.17845C15.3082 8.21198 15.2977 8.32432 15.2625 8.33515Z" fill="white"/>
<path d="M14.2231 8.91807C14.2615 8.81616 14.2704 8.71628 14.241 8.77109C14.1745 8.89386 14.0499 9.13109 14.0134 9.2959C13.977 9.46071 14.0212 9.57224 14.0913 9.61448C14.1787 9.66736 14.2507 9.59959 14.3052 9.49576C14.3572 9.39639 14.3598 9.27574 14.3278 9.30188C14.3002 9.32943 14.2819 9.42739 14.2504 9.43458C14.1848 9.44906 14.0912 9.3741 14.1115 9.2335C14.1299 9.10688 14.1953 8.99171 14.2231 8.91807Z" fill="white"/>
<path d="M11.1961 11.0679C11.2602 10.9638 11.2921 10.856 11.2476 10.9105C11.1483 11.0322 10.9604 11.2685 10.8846 11.4419C10.809 11.6152 10.8331 11.7453 10.9005 11.8046C10.9845 11.8785 11.0782 11.8178 11.16 11.7145C11.2386 11.6156 11.268 11.4843 11.2269 11.5067C11.1908 11.5319 11.1496 11.6355 11.1134 11.6375C11.0387 11.6411 10.9526 11.5417 11.0054 11.392C11.0532 11.2569 11.1497 11.1432 11.1961 11.0679Z" fill="white"/>
<path d="M16.5031 8.03187C16.4296 8.05031 16.3209 7.96796 16.3391 7.80821C16.3556 7.66407 16.4259 7.53188 16.4547 7.4478C16.4948 7.33141 16.5017 7.21786 16.47 7.28066C16.399 7.42166 16.2658 7.69395 16.2302 7.88175C16.1946 8.06946 16.2484 8.19435 16.3292 8.24024C16.43 8.29737 16.5093 8.21877 16.5674 8.09944C16.623 7.98538 16.6221 7.84883 16.5863 7.87922C16.5561 7.91143 16.5389 8.02296 16.5031 8.03187Z" fill="white"/>
<path d="M16.4806 9.99165C16.5812 10.0488 16.6609 9.97017 16.7188 9.85084C16.7742 9.73678 16.7735 9.60024 16.7378 9.63062C16.7075 9.66263 16.6903 9.77436 16.6545 9.78328C16.581 9.80161 16.472 9.71936 16.4905 9.55962C16.507 9.41547 16.5771 9.28318 16.606 9.1992C16.646 9.08281 16.6529 8.96906 16.6214 9.03206C16.5502 9.17307 16.4172 9.44535 16.3816 9.63295C16.3459 9.82086 16.3997 9.94576 16.4806 9.99165Z" fill="white"/>
<path d="M17.7661 7.48825C17.8145 7.34745 17.8229 7.20999 17.7845 7.28606C17.6984 7.45665 17.5373 7.78606 17.4942 8.01347C17.4512 8.24068 17.5164 8.39172 17.6143 8.44733C17.736 8.51641 17.8323 8.42129 17.9025 8.27705C17.9695 8.13898 17.9685 7.97356 17.9253 8.01054C17.8888 8.04933 17.8679 8.18426 17.8245 8.1951C17.7358 8.21738 17.604 8.11781 17.6262 7.92454C17.6462 7.7501 17.7312 7.59016 17.7661 7.48825Z" fill="white"/>
<path d="M7.4929 9.92367C7.57211 9.75207 7.60082 9.58027 7.54253 9.67175C7.41204 9.87647 7.16629 10.2728 7.08236 10.5536C6.99833 10.8345 7.06056 11.0319 7.17615 11.1128C7.32033 11.2133 7.45389 11.1043 7.56094 10.931C7.66338 10.7647 7.68376 10.5566 7.6247 10.5982C7.57375 10.6428 7.52971 10.8103 7.47383 10.8191C7.35901 10.8372 7.2065 10.6972 7.25975 10.4566C7.30795 10.2395 7.4357 10.0479 7.4929 9.92367Z" fill="white"/>
<path d="M18.585 11.625C18.6457 11.5753 19.1736 11.2909 19.2708 11.2332C19.2708 11.2332 19.3702 11.0711 19.3404 11.0539C19.3105 11.0367 19.1177 11.2119 18.9979 11.2168C18.8779 11.2216 18.7137 11.1335 18.7084 11.0613C18.724 11.0068 18.8683 10.9249 18.9204 10.9216C18.9726 10.9186 18.9641 11.0373 18.9815 11.0518C18.999 11.066 19.0683 10.9698 19.0771 10.9297C19.0856 10.8897 19.0785 10.7221 18.9831 10.7462C18.832 10.7843 18.6041 11.0645 18.5781 11.1527C18.552 11.241 18.6927 11.3179 18.7955 11.3597C18.7867 11.3629 18.7101 11.3998 18.6615 11.4478C18.6615 11.4478 18.6094 11.5063 18.585 11.625Z" fill="white"/>
<path d="M16.785 11.9772C16.8457 11.9274 17.3736 11.6433 17.4707 11.5854C17.4707 11.5854 17.5703 11.4233 17.5403 11.4061C17.5104 11.3888 17.3177 11.5641 17.1978 11.5689C17.0779 11.5738 16.9136 11.4857 16.9084 11.4135C16.9239 11.359 17.0682 11.2771 17.1204 11.274C17.1725 11.2707 17.1641 11.3893 17.1815 11.4037C17.1989 11.4182 17.2683 11.322 17.277 11.2819C17.2856 11.2419 17.2782 11.0743 17.183 11.0983C17.0319 11.1367 16.8041 11.4167 16.7781 11.505C16.7519 11.5932 16.8927 11.67 16.9952 11.7119C16.9867 11.7151 16.91 11.7519 16.8615 11.8C16.8615 11.8 16.8093 11.8585 16.785 11.9772Z" fill="white"/>
<path d="M12.7305 6.88077C12.7778 6.93577 13.0879 7.32971 13.3308 7.57738C13.5736 7.82526 13.9898 8.22639 14.2956 8.50131C14.3548 8.55459 14.4176 8.61233 14.4814 8.6724C14.5586 9.26458 14.6478 10.0181 14.6852 10.3297C14.7221 10.6365 14.7276 11.024 14.7284 11.0915C14.729 11.159 14.7777 11.1452 14.8239 10.9936C14.8859 10.7901 14.8931 10.2632 14.8602 9.9151C14.8398 9.70015 14.7917 9.2975 14.7452 8.92625C14.9257 9.10463 15.0963 9.2816 15.2112 9.41409C15.4226 9.6573 15.6004 9.84075 15.7088 10.1022C15.7855 10.2872 15.7777 10.4343 15.8091 10.4634C15.8363 10.4885 15.8663 10.2672 15.8328 10.0526C15.7784 9.704 15.7039 9.55621 15.2565 9.05854C15.0858 8.86831 14.8848 8.66946 14.6884 8.48358C14.6808 8.42625 14.6739 8.37317 14.6677 8.32607C14.6521 8.20968 14.5005 7.2034 14.4886 7.09065C14.4784 6.9925 14.4605 6.87692 14.4619 6.82232C14.463 6.77886 14.4906 6.79578 14.534 6.84015C14.5772 6.88441 14.6528 6.96191 14.6656 6.95512C14.7079 6.93324 14.6608 6.80327 14.6015 6.68668C14.5425 6.57029 14.339 6.1098 14.2981 6.09157C14.2774 6.08225 14.1555 6.37104 14.1492 6.42757C14.1704 6.46241 14.2241 6.51671 14.2299 6.67412C14.2315 6.71808 14.2705 7.13198 14.3195 7.52278C14.3629 7.8681 14.4166 8.1956 14.4222 8.23348L14.4224 8.23642C14.2198 8.05165 14.0413 7.89474 13.9331 7.79618C13.68 7.56614 13.121 7.02025 13.0985 6.93851C13.0935 6.91267 13.1369 6.92858 13.2166 6.94134C13.2967 6.95421 13.3679 6.98146 13.3551 6.94215C13.3493 6.92361 13.3186 6.87783 13.2423 6.83062C13.1658 6.78332 12.9699 6.66075 12.8242 6.57404C12.6781 6.48743 12.6058 6.4148 12.5757 6.43557C12.5608 6.4458 12.5741 6.7425 12.5828 6.77947C12.6193 6.78261 12.6834 6.82556 12.7305 6.88077Z" fill="white"/>
<path d="M13.1296 6.34724C13.1895 6.33407 13.4735 6.34126 13.5766 6.36294C13.5334 6.39292 13.2429 6.5397 13.1855 6.57465C13.1284 6.6097 13.1139 6.62996 13.1426 6.62651C13.2259 6.60342 13.4136 6.57465 13.5035 6.52775C13.5883 6.48804 13.7328 6.29436 13.789 6.22214C13.8449 6.14991 13.8449 6.11385 13.8307 6.0945C13.7733 6.0633 13.4032 6.032 13.2247 6.07627C13.1753 6.1098 13.0786 6.28839 13.0644 6.32556C13.0501 6.36294 13.0696 6.36041 13.1296 6.34724Z" fill="white"/>
<path d="M14.709 6.32398C14.7574 6.31334 14.9863 6.31912 15.0693 6.33654C15.0345 6.36075 14.8005 6.47906 14.7543 6.50743C14.7079 6.53549 14.6964 6.5519 14.7195 6.54906C14.7867 6.53062 14.938 6.50743 15.0104 6.46944C15.0787 6.43743 15.1951 6.28133 15.2404 6.22329C15.2854 6.16494 15.2854 6.13597 15.2739 6.12048C15.2279 6.09505 14.9296 6.06993 14.7857 6.10569C14.7458 6.13263 14.6681 6.27657 14.6566 6.30656C14.6449 6.33654 14.6608 6.33462 14.709 6.32398Z" fill="white"/>
<path d="M15.9931 6.3075C16.0413 6.29686 16.2702 6.30264 16.3531 6.32006C16.3186 6.34427 16.0845 6.46259 16.0381 6.49075C15.992 6.51901 15.9805 6.53542 16.0036 6.53258C16.0708 6.51415 16.2338 6.49075 16.3062 6.45296C16.3746 6.42095 16.4555 6.26485 16.5008 6.20661C16.546 6.14847 16.546 6.11929 16.5343 6.104C16.4883 6.07857 16.2134 6.05345 16.0698 6.089C16.0299 6.11615 15.952 6.26009 15.9405 6.29008C15.929 6.32006 15.9447 6.31814 15.9931 6.3075Z" fill="white"/>
<path d="M15.1921 6.93284C15.1161 7.05258 15.2114 7.14921 15.2461 7.24595C15.1992 7.2888 15.1271 7.2497 15.103 7.21212C15.0517 7.13503 15.069 6.97792 15.0086 6.95371C14.9931 6.99615 14.9831 7.04326 14.9831 7.04326C14.9831 7.04326 15.029 7.15073 15.0175 7.22184C15.0101 7.26479 14.9722 7.31493 14.9221 7.31595C14.7887 7.31919 14.8544 7.12166 14.8029 7.00973C14.7924 7.03708 14.7849 7.06645 14.7726 7.09208C14.782 7.12126 14.7872 7.16218 14.7887 7.18578C14.7918 7.23268 14.788 7.28323 14.796 7.32324C14.8071 7.37987 14.8385 7.41745 14.8865 7.42109C14.9862 7.42899 15.0317 7.34826 15.0467 7.28201C15.0639 7.34958 15.1957 7.42403 15.2606 7.34107C15.3465 7.23167 15.2778 7.13797 15.2337 7.03505C15.202 6.95898 15.2112 6.90904 15.1921 6.93284Z" fill="white"/>
<path d="M11.4466 6.61527C11.4535 6.6645 11.4788 6.69813 11.5201 6.70319C11.6053 6.71403 11.6485 6.64626 11.6646 6.58994C11.6759 6.6488 11.7861 6.71808 11.846 6.6494C11.9252 6.55854 11.8703 6.47507 11.8373 6.38462C11.8136 6.31756 11.8238 6.27501 11.8063 6.29477C11.735 6.39464 11.8127 6.48206 11.838 6.56685C11.7955 6.60169 11.7354 6.56513 11.7163 6.532C11.6758 6.46342 11.6979 6.3288 11.6473 6.3054C11.6319 6.34146 11.6211 6.38148 11.6211 6.38148C11.6211 6.38148 11.6554 6.47599 11.642 6.53666C11.6338 6.57343 11.5988 6.61507 11.5555 6.61395C11.4405 6.61142 11.5065 6.44387 11.4673 6.34552C11.4571 6.36851 11.4491 6.39373 11.4371 6.415C11.444 6.44073 11.4466 6.47599 11.4466 6.49655C11.4474 6.53707 11.4417 6.58022 11.4466 6.61527Z" fill="white"/>
<path d="M14.166 11.2545C14.1788 11.2341 14.2071 11.1782 14.2 11.14C14.1929 11.1018 14.1461 10.9425 14.0553 10.9026C13.965 10.8627 13.8966 10.9464 13.8533 11.0627L13.8233 11.062C13.8162 11.0793 13.8072 11.105 13.8001 11.1515C13.79 11.2186 13.7709 11.2619 13.6558 11.3664C13.5589 11.454 13.2451 11.6641 13.0418 11.7629C12.8382 11.8619 12.6917 11.9473 12.6377 11.9732C12.5839 11.9987 12.5996 12.0082 12.6534 11.9921C12.7071 11.9761 12.9773 11.8891 13.085 11.8448C13.1924 11.8001 13.3239 11.7266 13.4823 11.6238C13.6585 11.5096 13.7638 11.3953 13.7992 11.294C13.8244 11.2218 13.8309 11.1929 13.8309 11.1929C13.8309 11.1929 13.897 11.232 14.0093 11.2576C14.1212 11.2834 14.153 11.2751 14.166 11.2545ZM14.0142 11.0281C14.064 11.047 14.0944 11.1013 14.1034 11.1343C14.0462 11.1356 13.9409 11.1065 13.8961 11.0862C13.923 11.0341 13.9699 11.0115 14.0142 11.0281Z" fill="white"/>
<path d="M12.9736 11.3665C12.8173 11.3449 12.4237 11.285 12.3274 11.0565C12.4082 10.9386 12.7806 10.7893 13.2471 10.6496C13.7137 10.5102 14.2011 10.3293 14.3321 10.2419C14.3608 10.2322 14.4164 10.2352 14.4164 10.2352C14.4398 10.1676 14.557 9.93036 14.5643 9.88073C14.4339 9.88812 13.6303 9.94718 13.2733 9.96632C12.9161 9.98557 12.2283 9.98091 11.9991 9.97838C12.1397 9.87728 12.4733 9.67996 12.9501 9.5116C13.0119 9.48972 13.0691 9.46997 13.1225 9.45214C13.1621 9.52285 13.1916 9.59274 13.1977 9.65362C13.2281 9.62242 13.2509 9.519 13.2432 9.41284C13.5212 9.3241 13.6644 9.29473 13.7261 9.27801C13.7651 9.22746 13.8343 9.02305 13.8446 8.87445C13.8031 8.79878 13.673 8.70457 13.5573 8.62364C13.3979 8.51231 13.226 8.41527 13.0544 8.45771C12.8198 8.51525 12.7728 8.94616 12.8275 9.03753C12.8449 9.0664 12.8862 9.11756 12.935 9.18067C12.7636 9.24803 12.5844 9.32724 12.4264 9.41051C12.0745 9.59588 11.6816 9.79868 11.567 9.99367L11.5341 10.0097C11.5249 10.0281 11.4524 10.3299 11.4419 10.3624C11.5151 10.3599 12.0616 10.3609 12.4422 10.349C12.8226 10.3369 13.1552 10.3248 13.2855 10.3248C13.0925 10.3705 12.5869 10.5584 12.4415 10.6689C12.2961 10.7797 12.2048 10.9482 12.2023 11.237C12.0668 11.1839 11.8149 11.0627 11.6003 10.7723C11.361 10.4488 11.4105 10.116 11.3148 9.67935C11.1756 9.04564 10.8785 8.51059 10.6934 8.34689C10.6311 8.57056 10.6231 8.73911 10.6231 8.73911C10.6231 8.73911 10.8549 9.25167 10.9723 9.57886C11.0896 9.90615 11.1899 10.2286 11.1849 10.3008C11.0883 10.5127 10.5163 10.9566 10.0396 11.2164C9.58751 11.4628 9.18925 11.4893 9.04813 11.3139C9.02041 11.2796 9.00157 11.2391 8.99094 11.1932C9.0523 11.1646 9.11387 11.1357 9.17698 11.1068C9.58346 10.9216 10.3054 10.5319 10.4745 10.3273C10.6571 10.0795 10.6545 9.7305 10.5475 9.53075C10.4409 9.33109 10.2737 9.09993 10.2607 9.01819C10.2505 8.97959 10.3692 9.03389 10.4394 9.03753C10.4733 9.035 10.4563 8.98932 10.3835 8.91709C10.3252 8.85956 10.0998 8.67287 10.0137 8.60003C9.99213 8.5815 9.97602 8.58899 9.97164 8.60854C9.95488 8.6831 9.92058 8.84274 9.90733 8.92155L9.91653 8.96126C9.94129 8.97595 9.96978 8.99246 9.98358 9.03368C10.0031 9.09213 10.0713 9.25522 10.1832 9.46105C10.2953 9.66679 10.4572 9.89389 10.4731 10.0086C10.3414 10.1765 9.67735 10.5342 9.03049 10.829C9.07048 10.705 9.13359 10.5648 9.2173 10.4091C9.24107 10.3828 9.26277 10.3502 9.28293 10.3136C9.34746 10.1957 9.3537 10.0515 9.31459 10.082C9.28106 10.1143 9.25696 10.2313 9.21861 10.2392C9.14006 10.2553 9.02984 10.1636 9.05755 9.996C9.08264 9.84477 9.1635 9.70822 9.19845 9.6208C9.24688 9.49985 9.26014 9.38032 9.22343 9.44535C9.14093 9.59061 8.98612 9.87201 8.93857 10.0686C8.89124 10.2649 8.94153 10.3992 9.02447 10.4511C9.05547 10.4709 9.08516 10.4771 9.11343 10.4732C9.05668 10.5812 8.98656 10.7137 8.93539 10.8717C8.67529 10.9881 8.4222 11.0921 8.21271 11.1671C7.45969 11.4366 6.92305 11.5955 6.54769 11.7134L6.533 11.72C6.56061 11.6307 6.55689 11.5545 6.52731 11.5774C6.49378 11.61 6.46979 11.727 6.43144 11.7347C6.35288 11.7508 6.24266 11.6592 6.27027 11.4914C6.29547 11.3402 6.37633 11.2039 6.41128 11.1163C6.45949 10.9955 6.47285 10.8758 6.43626 10.9409C6.35365 11.0862 6.19895 11.3676 6.1514 11.5641C6.10396 11.7605 6.15424 11.8947 6.23707 11.9468C6.34028 12.0116 6.42826 11.9321 6.49575 11.8091L6.51942 11.7586C6.54286 11.7586 6.58242 11.7531 6.64147 11.7399C6.81349 11.7012 7.24352 11.6388 7.83483 11.5617C8.27265 11.5048 8.57493 11.3846 8.86713 11.2508C8.86582 11.2831 8.86549 11.316 8.86692 11.3499C8.8828 11.7512 9.14575 11.8644 9.50534 11.7894C9.85221 11.7165 10.3359 11.3985 10.6258 11.1839C10.9281 10.9602 11.1025 10.7604 11.147 10.6907C11.2277 10.5198 11.2498 10.331 11.2553 10.2419C11.2817 10.4873 11.303 10.8268 11.5351 11.1181C11.7488 11.3861 12.1866 11.7601 13.01 11.7703C13.0128 11.6724 12.9736 11.3665 12.9736 11.3665ZM12.9191 8.88032C13.037 8.74803 13.2885 8.83454 13.4773 9.00228C13.3806 9.02497 13.2492 9.06539 13.1043 9.11715C13.0181 9.01332 12.9221 8.91324 12.9191 8.88032Z" fill="white"/>
<path d="M8.28946 7.06645C8.34293 7.04203 8.50651 6.96849 8.68279 6.86578C8.85875 6.76377 9.02408 6.64019 9.10494 6.55804C9.13595 6.52654 9.16356 6.50192 9.1812 6.47265C9.234 6.49453 9.27038 6.51722 9.29306 6.52613C9.32713 6.5393 9.3726 6.55824 9.40218 6.4612C9.43166 6.36426 9.39254 6.30166 9.33491 6.2269C9.28616 6.1642 9.20881 6.06999 9.14603 6.04659C9.09278 6.02664 9.06747 6.14556 9.07558 6.14262H9.11118L9.11809 6.14596C9.04479 6.18294 8.98804 6.29801 8.98234 6.33843C8.97653 6.38239 8.98486 6.41481 9.09004 6.44185L9.13233 6.45431C9.04457 6.55824 8.88099 6.66572 8.76957 6.74189C8.61147 6.85028 8.38708 6.98571 8.32321 7.02481C8.25933 7.06371 8.2647 7.07597 8.28946 7.06645ZM9.23959 6.30287L9.24529 6.25091C9.31924 6.33519 9.37414 6.43547 9.36866 6.44965C9.33469 6.45239 9.2924 6.42098 9.21845 6.38938C9.22666 6.36426 9.23357 6.3365 9.23959 6.30287ZM9.02726 6.30297C9.02682 6.28717 9.05531 6.24321 9.11557 6.2192C9.17572 6.19499 9.20234 6.26256 9.2076 6.34481L9.18974 6.37773L9.13551 6.35899C9.0781 6.34218 9.03931 6.33265 9.02726 6.30297Z" fill="white"/>
<path d="M12.2326 8.65303C12.3194 8.5957 12.5579 8.42349 12.6932 8.31065C12.7873 8.23225 12.8979 8.11677 12.9729 8.01912C13.02 8.04961 13.064 8.07665 13.104 8.10016C13.1811 8.14523 13.2121 8.21209 13.2121 8.21209C13.2263 8.19021 13.2927 8.07048 13.2668 8.01223C13.2512 7.99319 13.1563 7.93778 13.0594 7.87842C13.1086 7.768 13.1763 7.57706 13.0793 7.5102C12.9964 7.45348 12.8564 7.54738 12.7917 7.66924C12.7382 7.77013 12.7313 7.85573 12.8333 7.92582C12.862 7.94558 12.8895 7.96422 12.9165 7.98194C12.8136 8.09448 12.6241 8.26101 12.4892 8.37437C12.3217 8.51456 12.1632 8.65202 12.1356 8.68484L12.1276 8.6976C12.091 8.5957 12.101 8.53279 12.0738 8.56663C11.9565 8.75068 12.1035 8.89979 12.157 9.0487C12.0847 9.11434 11.9739 9.05406 11.9368 8.99663C11.8577 8.87771 11.8841 8.63622 11.7915 8.59884C11.7676 8.66407 11.7521 8.7367 11.7521 8.7367C11.7521 8.7367 11.8225 8.90212 11.8046 9.01132C11.7936 9.07736 11.7351 9.15465 11.6583 9.15597C11.4527 9.16124 11.5541 8.85714 11.4747 8.68494C11.4586 8.72718 11.4471 8.77236 11.4279 8.81146C11.4424 8.85674 11.4504 8.91954 11.4525 8.95591C11.4578 9.02813 11.4519 9.10562 11.464 9.16762C11.481 9.25473 11.5294 9.31267 11.6034 9.31804C11.7567 9.3305 11.8267 9.20591 11.8499 9.10431C11.8763 9.20824 12.0793 9.3225 12.1791 9.19507C12.3114 9.02661 12.2055 8.88237 12.1379 8.72394L12.1299 8.70338C12.1394 8.70672 12.1747 8.69122 12.2326 8.65303ZM12.8321 7.70449C12.883 7.61018 12.99 7.60218 13.0221 7.65161C13.0476 7.69092 13.0497 7.7676 13.0114 7.84854C12.9169 7.78928 12.8327 7.73123 12.8321 7.70449Z" fill="white"/>
<path d="M8.88651 8.05332C8.70595 8.04056 8.60877 7.87514 8.55322 7.63618C8.49757 7.39722 8.53164 7.08209 8.54676 7.00136C8.56188 6.92073 8.47675 6.96236 8.44366 7.15816C8.41079 7.35377 8.3777 7.66657 8.49417 7.99406C8.61042 8.32115 8.80861 8.44321 8.98227 8.40138C9.15593 8.35974 9.30877 7.95223 9.36267 7.76939C9.41647 7.58645 9.65718 6.8404 9.79348 6.80028C9.81254 6.89175 9.68753 7.12119 9.64754 7.46611C9.60777 7.81102 9.67701 8.26341 10.1148 8.34364C10.5526 8.42397 10.8497 8.13993 10.9574 7.9425C11.0652 7.74538 11.1155 7.53813 11.1276 7.43399C11.1416 7.69868 11.3222 8.11197 11.6729 8.22978C12.0118 8.34364 12.2707 8.2394 12.3851 8.09181C12.4866 7.96074 12.5694 7.69078 12.5765 7.48373C12.5834 7.27688 12.4046 6.89834 12.3646 6.7778C12.3245 6.65756 12.3038 6.57409 12.3003 6.53246C12.2969 6.49082 12.3908 6.58067 12.4498 6.5983C12.4898 6.6063 12.4758 6.51969 12.4272 6.46023C12.3786 6.40097 12.1159 6.00257 12.0975 6.03033C12.0862 6.04694 11.981 6.33999 11.9741 6.38487C12.0157 6.41222 12.064 6.48758 12.0676 6.55981C12.0709 6.63203 12.1404 6.94959 12.2047 7.12605C12.2691 7.30251 12.3941 7.64104 12.4028 7.73414C12.2778 7.82226 11.9962 7.9344 11.7288 7.82074C11.4614 7.70668 11.376 7.54147 11.3465 7.24629C11.3277 7.05768 11.3258 6.71023 11.2586 6.41971C11.2206 6.25551 11.1408 6.08857 11.0459 5.99994C11.0235 6.05434 10.9227 6.38973 10.9227 6.38973C10.9556 6.48596 11.0578 6.81001 11.0545 7.0908C11.0509 7.37139 11.0288 7.64601 10.7141 7.83523C10.3997 8.02445 9.95169 7.94909 9.83522 7.65381C9.71875 7.35863 9.97765 6.69453 9.97426 6.51969C9.97075 6.34485 9.9393 6.32064 9.86645 6.34962C9.79348 6.37849 9.64392 6.54704 9.51552 6.82125C9.38689 7.09566 9.32981 7.36987 9.25662 7.60093C9.18376 7.83199 9.06707 8.06608 8.88651 8.05332Z" fill="white"/>
<path d="M3.64384 7.02989C3.86604 7.01378 4.05383 6.84533 4.10236 6.80055C4.15101 6.75548 4.17719 6.68832 4.14235 6.71384C3.88532 6.94328 3.5414 6.94976 3.52212 6.91117C3.53088 6.87268 3.62138 6.81007 3.75341 6.72195C3.83361 6.66836 3.90504 6.61812 3.95851 6.54691L3.97308 6.54944C4.07092 6.57091 4.18388 6.61366 4.21839 6.57942C4.2746 6.52401 4.28205 6.43325 4.22113 6.3354C4.16963 6.25234 4.04955 6.17505 3.94525 6.11923C3.84117 6.06372 3.82101 6.15236 3.80764 6.18396C3.79482 6.21344 3.80008 6.23856 3.8221 6.23917C3.78857 6.28485 3.76469 6.34371 3.75593 6.39233C3.75023 6.42373 3.75483 6.44946 3.76765 6.47063C3.77137 6.47661 3.79066 6.50021 3.82714 6.51419L3.87239 6.52827C3.79449 6.60019 3.70476 6.65651 3.65765 6.68497C3.57263 6.73633 3.47183 6.82618 3.4406 6.91907C3.40927 7.01226 3.42143 7.04599 3.64384 7.02989ZM4.03663 6.3745L4.04517 6.32709V6.2967C4.11562 6.34796 4.22825 6.445 4.22135 6.50315C4.17676 6.49302 4.09174 6.47509 4.01099 6.45432C4.02129 6.43011 4.02972 6.40357 4.03663 6.3745ZM3.8278 6.38929C3.77598 6.34796 3.82648 6.30673 3.87239 6.28019C3.93166 6.24595 3.9664 6.27422 3.99674 6.36407C3.98612 6.3898 3.97122 6.41482 3.95369 6.43882C3.90756 6.42454 3.84259 6.40165 3.8278 6.38929Z" fill="white"/>
<path d="M4.31041 9.53925C4.24653 9.59466 4.22177 9.77496 4.23481 9.7858C4.24774 9.79664 4.44736 9.864 4.47859 9.87859L4.49283 9.8243C4.58793 9.90969 4.69333 10.3357 4.71678 10.337C4.74023 10.3381 4.77419 10.2887 4.79643 10.1756C4.81692 10.0706 4.83741 9.91364 4.85877 9.7858C4.87871 9.6688 4.90972 9.60185 4.98006 9.58848C5.05051 9.57531 5.10266 9.66556 5.12085 9.72695C5.12085 9.72695 5.17026 9.60894 5.18078 9.5356C5.16906 9.49701 5.05949 9.35154 4.96965 9.39966C4.8797 9.44788 4.82338 9.65199 4.8052 9.77962C4.7869 9.90705 4.77288 10.0651 4.75074 10.0904C4.72752 9.98161 4.65312 9.78692 4.56328 9.67752C4.46226 9.55495 4.34416 9.50997 4.31041 9.53925Z" fill="white"/>
<path d="M3.45887 9.32142C3.54225 9.29853 3.72993 9.26976 3.81977 9.22286C3.90447 9.18315 4.04898 8.98947 4.10508 8.91725C4.16106 8.84502 4.16117 8.80876 4.14693 8.78961C4.08963 8.75821 3.71941 8.72711 3.54083 8.77138C3.49152 8.80471 3.395 8.98329 3.38076 9.02067C3.36629 9.05785 3.38601 9.05552 3.44584 9.04235C3.50577 9.02898 3.78986 9.03617 3.89263 9.05785C3.84979 9.08803 3.55923 9.23481 3.50182 9.26976C3.44463 9.30461 3.43017 9.32507 3.45887 9.32142Z" fill="white"/>
<path d="M20.6716 10.3554C20.663 10.1389 20.557 9.80653 20.1538 9.29661C20.0146 9.12055 19.8188 8.89142 19.6123 8.65672C19.6066 8.57669 19.6009 8.50355 19.5958 8.44075C19.5687 8.11772 19.477 7.45868 19.4375 7.06909C19.4279 6.97084 19.4271 6.8663 19.4286 6.8117C19.43 6.76835 19.4612 6.77412 19.5042 6.81869C19.5471 6.86316 19.6133 6.92809 19.6271 6.92363C19.6565 6.9135 19.6309 6.81514 19.5723 6.69855C19.5138 6.58176 19.2926 6.10941 19.2519 6.09108C19.231 6.08176 19.1267 6.35911 19.1203 6.41583C19.141 6.45068 19.1944 6.50487 19.1996 6.66259C19.2051 6.82021 19.3002 7.75112 19.3548 8.33773L19.3578 8.37045C19.049 8.02574 18.7583 7.71142 18.6386 7.58399C18.6179 7.5619 18.5951 7.53678 18.5706 7.50984C18.5511 7.35293 18.5331 7.20341 18.5207 7.07993C18.5106 6.98188 18.51 6.87714 18.5117 6.82254C18.5127 6.77929 18.5442 6.78516 18.5871 6.82973C18.6303 6.8742 18.6962 6.93913 18.71 6.93447C18.7394 6.92454 18.7139 6.82619 18.6552 6.70939C18.5968 6.5926 18.3661 6.10941 18.3253 6.09108C18.3046 6.08176 18.1954 6.38119 18.189 6.43751C18.2099 6.47256 18.2633 6.52675 18.2685 6.68447C18.2706 6.75143 18.288 6.95443 18.3112 7.21061C18.1066 6.96739 17.9062 6.71273 17.8919 6.66097C17.8869 6.63544 17.9302 6.65115 18.0103 6.66411C18.09 6.67687 18.1649 6.70088 18.152 6.66138C18.146 6.64304 18.1156 6.59726 18.0392 6.54985C17.9627 6.50254 17.7668 6.37997 17.6211 6.29347C17.4751 6.20686 17.4027 6.13403 17.3726 6.15479C17.3577 6.16502 17.371 6.46192 17.3795 6.49869C17.4162 6.50204 17.484 6.52929 17.5272 6.58702C17.5708 6.64476 17.85 7.03617 18.0707 7.30086C18.1343 7.37704 18.2338 7.49515 18.3502 7.63149C18.373 7.87531 18.3969 8.12724 18.4166 8.33773C18.4614 8.81788 18.6225 10.0842 18.624 10.4958C18.5052 10.6073 18.262 10.7629 18.0119 10.7661C17.7618 10.7693 17.6246 10.7034 17.5238 10.5174C17.4927 10.4598 17.4638 10.4019 17.4351 10.3494C17.3669 10.2247 17.2148 10.1547 17.0682 10.189L17.0459 10.195L17.006 10.2141C16.9068 10.2661 16.8041 10.3532 16.7037 10.4884C16.5302 10.7228 16.4193 10.977 16.2909 11.1972C16.1571 11.4266 16.0545 11.5804 15.8198 11.5437C15.6546 11.5177 15.5291 11.376 15.4518 11.2017C15.669 11.0514 15.8268 10.8553 15.9422 10.5835C16.0924 10.2303 16.1459 9.83206 16.1326 9.38433C16.1198 8.96293 15.9277 7.97155 15.877 7.59158C15.8263 7.21142 15.7536 6.89942 15.762 6.81828C15.7699 6.73998 15.8946 6.92434 15.9585 6.93812C15.9911 6.93082 15.9736 6.81322 15.9116 6.71385C15.8695 6.64628 15.7363 6.33895 15.6491 6.19075C15.6081 6.12066 15.5982 6.08004 15.5792 6.07173C15.5603 6.06312 15.4152 6.37319 15.4327 6.40692C15.4756 6.46831 15.505 6.49758 15.514 6.60759C15.5232 6.7176 15.6227 7.52513 15.7097 8.11984C15.7752 8.56859 15.9199 9.38372 15.9385 9.98623C15.9447 10.1828 15.9166 10.324 15.8923 10.4028C15.8299 10.5235 15.7281 10.6576 15.3705 10.9122C15.3152 10.5525 15.3753 10.2602 15.3229 10.2332C15.2639 10.2396 15.2544 10.4072 15.2477 10.6141C15.2445 10.7096 15.2486 10.8419 15.2666 10.984C14.8274 11.2776 14.2471 11.5449 13.9746 11.6876C13.8148 11.7715 13.8724 11.791 14.0077 11.7492C14.143 11.7072 14.8866 11.5122 15.2836 11.3034L15.3263 11.2797C15.3465 11.3497 15.3709 11.4175 15.4009 11.48C15.5345 11.7575 15.7253 11.9223 15.9321 11.9062C16.106 11.8928 16.2321 11.7068 16.3421 11.4848C16.4533 11.2601 16.6412 10.8335 16.8255 10.6747C16.8962 10.6136 16.9694 10.5651 17.0406 10.5361C17.0406 10.5361 17.1665 10.494 17.2823 10.5697C17.3239 10.597 17.3549 10.6359 17.3745 10.6795C17.4202 10.7795 17.4742 10.9067 17.5846 11.0133C17.7792 11.2007 18.0921 11.162 18.3268 11.053C18.5612 10.9439 18.6808 10.7737 18.7329 10.5715C18.8219 10.2256 18.8077 9.87116 18.7907 9.55633C18.7711 9.19703 18.7137 8.82983 18.681 8.44075C18.6705 8.31565 18.65 8.14162 18.6265 7.95291C18.855 8.21668 19.0923 8.48441 19.2363 8.63078C19.2859 8.68133 19.3383 8.73745 19.3921 8.79671C19.435 9.38564 19.4763 10.1226 19.4981 10.4318C19.5197 10.74 19.5058 11.1273 19.5033 11.1947C19.5007 11.2621 19.5381 11.2505 19.5919 11.101C19.664 10.9003 19.7093 10.3741 19.6935 10.0251C19.6841 9.81778 19.6634 9.43974 19.641 9.08216C19.8184 9.29296 19.9868 9.50578 20.0963 9.64942C20.2912 9.90449 20.4701 10.2078 20.5326 10.397C20.5951 10.5864 20.602 10.6425 20.6141 10.6763C20.6263 10.71 20.6801 10.5718 20.6716 10.3554Z" fill="white"/>
<path d="M17.3821 17.5605C17.3645 17.5101 17.3106 17.4732 17.2461 17.4732C17.1817 17.4732 17.1279 17.5101 17.1102 17.5605H16.5001C16.4939 17.4928 16.4999 17.4248 16.5191 17.3585L17.7788 17.3577L17.8139 17.4168C17.8456 17.4701 17.8856 17.5183 17.932 17.5605L17.3821 17.5605ZM18.216 16.9751H16.7022C16.8185 16.8911 16.8796 16.7686 16.8632 16.6446C16.8527 16.5665 16.7753 16.5082 16.681 16.5002H16.6336C16.5188 16.5115 16.4355 16.5942 16.4476 16.6851L16.4523 16.72L16.4579 16.7738C16.464 16.8412 16.4581 16.909 16.4391 16.9751H5.24951C5.41567 17.2168 5.71861 17.3651 6.04574 17.3648L16.2564 17.3586C16.1396 17.4426 16.0784 17.5654 16.0949 17.6896C16.107 17.7804 16.2097 17.8452 16.3245 17.834C16.4391 17.8228 16.5224 17.74 16.5104 17.649L16.5058 17.6142H17.1058C17.1164 17.6728 17.1749 17.7177 17.2462 17.7177C17.3174 17.7177 17.3759 17.6728 17.3866 17.6142H17.997V17.6128C18.1244 17.7032 18.2864 17.7552 18.4577 17.7552C18.6189 17.7552 18.7495 17.6432 18.7495 17.505V17.4327C18.7495 17.18 18.5107 16.9751 18.216 16.9751" fill="white"/>
</g>
<defs>
<clipPath id="clip0_1_119">
<rect width="24" height="24" rx="12" fill="white"/>
</clipPath>
</defs>
</svg>
