<svg width="24" height="24" viewBox="0 0 24 24" fill="none" xmlns="http://www.w3.org/2000/svg">
<g clip-path="url(#clip0_1_118)">
<path d="M21.8866 18.7994C22.6604 17.6762 23.2485 16.4151 23.6051 15.0596H18.1465L21.8866 18.7994Z" fill="#29337A"/>
<path d="M15.3608 23.5197C16.7434 23.117 18.0238 22.4745 19.1514 21.6365L15.3608 17.8458V23.5197Z" fill="#29337A"/>
<path d="M18.8694 2.16337C17.8118 1.42327 16.6302 0.850331 15.3607 0.480663V5.67151L18.8694 2.16337Z" fill="#29337A"/>
<path d="M23.4674 8.45679C23.0706 7.17157 22.4626 5.97922 21.6856 4.91855L18.1474 8.45679H23.4674Z" fill="#29337A"/>
<path d="M21.6886 19.0779C21.7557 18.9862 21.8218 18.8932 21.8866 18.7992L18.1466 15.0594H23.6052C23.6936 14.7227 23.7658 14.3795 23.8253 14.0316H16.6419L21.6886 19.0779Z" fill="white"/>
<path d="M19.1478 2.36137C19.0565 2.29333 18.9627 2.22857 18.8695 2.16336L15.3608 5.67166V0.480811C15.0237 0.382263 14.6814 0.297193 14.3331 0.228792V7.17596L19.1478 2.36137Z" fill="white"/>
<path d="M23.734 9.4845C23.6595 9.13626 23.5716 8.7933 23.4676 8.45677H18.1475L21.6857 4.91853C21.3009 4.39276 20.8742 3.89936 20.4105 3.4431L14.3692 9.4845H23.734Z" fill="white"/>
<path d="M15.3607 23.5196V17.8458L19.1513 21.6363C19.6739 21.2476 20.1624 20.8162 20.615 20.3492L14.3331 14.0673V23.7717C14.6812 23.7029 15.0236 23.6176 15.3607 23.5196Z" fill="white"/>
<path d="M15.3607 8.49298L15.3967 8.45675H15.3607V8.49298Z" fill="#D32030"/>
<path d="M14.369 9.48452H14.333V9.52069L14.369 9.48452Z" fill="#D32030"/>
<path d="M9.75099 14.0319H9.78564V13.997L9.75099 14.0319Z" fill="#D32030"/>
<path d="M15.3253 15.0594L15.3607 15.095V15.0594H15.3253Z" fill="#D32030"/>
<path d="M14.333 14.0673V14.0319H14.2975L14.333 14.0673Z" fill="#D32030"/>
<path d="M8.75793 3.13712V0.447153C7.47195 0.807143 6.27297 1.37461 5.20055 2.11395L8.11522 5.02863C8.34814 4.2103 8.43336 3.78723 8.75793 3.13712Z" fill="#252F6C"/>
<path d="M8.09999 18.5041L4.91815 21.6859C6.06125 22.5231 7.35802 23.161 8.75806 23.5532V20.7899C8.38383 20.0406 8.35236 19.4712 8.09999 18.5041Z" fill="#252F6C"/>
<path d="M2.36365 4.84863C1.56234 5.92657 0.937822 7.14334 0.532181 8.45679H5.9718L2.36365 4.84863Z" fill="#252F6C"/>
<path d="M0.394797 15.0594C0.758992 16.4436 1.36472 17.7284 2.16298 18.8692L5.97314 15.0594H0.394797Z" fill="#252F6C"/>
<path d="M7.39954 9.28119L6.57493 8.45658L2.62781 4.50946C2.53818 4.62164 2.44916 4.73341 2.36348 4.84842L5.97164 8.45658H0.532014C0.428349 8.79291 0.34029 9.13603 0.266012 9.48431H7.32242C7.33397 9.3386 7.3857 9.42595 7.39954 9.28119Z" fill="#E7E7E7"/>
<path d="M8.22463 17.9023L4.64717 21.4802C4.7368 21.5497 4.82659 21.6188 4.91814 21.6859L8.09999 18.5041C8.067 18.3783 8.25533 18.0311 8.22463 17.9023Z" fill="#E7E7E7"/>
<path d="M8.75803 21.011V23.5534C9.09472 23.6477 9.43748 23.7277 9.78577 23.7929V22.5528C9.40338 22.1382 9.06062 21.6175 8.75803 21.011Z" fill="#E7E7E7"/>
<path d="M7.48036 14.0319H0.174415C0.233746 14.3797 0.306099 14.7227 0.394564 15.0596H5.97291L2.16274 18.8694C2.53733 19.4044 2.95361 19.9077 3.40835 20.374L7.69995 16.0828C7.58438 15.3044 7.53265 14.8523 7.48036 14.0319Z" fill="#E7E7E7"/>
<path d="M8.2887 5.20237L5.20043 2.11376C4.68677 2.46751 4.20305 2.86125 3.75171 3.28868L7.81385 7.35101C7.9435 6.59972 8.09733 5.87407 8.2887 5.20237Z" fill="#E7E7E7"/>
<path d="M9.7854 1.58987V0.207675C9.43717 0.272478 9.09455 0.352836 8.75767 0.447178V3.13715C9.06046 2.53041 9.40322 2.00387 9.7854 1.58987Z" fill="#E7E7E7"/>
<path d="M7.69998 16.0828L3.40878 20.374C3.79512 20.7708 4.20932 21.14 4.64739 21.4802L8.01929 18.1077C7.86941 17.4813 7.80137 16.7643 7.69998 16.0828Z" fill="#D71F28"/>
<path d="M12.5989 23.9852C12.3989 23.9949 12.1996 24 12.0001 24C12.2008 24 12.4005 23.9949 12.5989 23.9852Z" fill="#D32030"/>
<path d="M12.0001 -1.17724e-05C12.1997 -1.17724e-05 12.399 0.0054593 12.5985 0.0151367C12.4001 0.00510463 12.2008 -1.17724e-05 12.0001 -1.17724e-05Z" fill="#D32030"/>
<path d="M12.0001 2.15088e-05C11.243 2.15088e-05 10.5037 0.0733368 9.78556 0.207706V1.5899C10.4159 0.906659 11.1533 2.15088e-05 12.0001 2.15088e-05Z" fill="#D32030"/>
<path d="M0.174668 14.0319H7.38566C7.29015 12.5269 7.30171 10.9793 7.42017 9.48455H0.26597C0.0927896 10.2961 -3.25289e-05 11.137 -3.25289e-05 11.9998C-3.25289e-05 12.6929 0.0617306 13.3709 0.174668 14.0319Z" fill="#D71F28"/>
<path d="M7.39953 9.28125C7.46621 8.57221 7.69852 8.01974 7.81409 7.35088L3.75195 3.28875C3.35006 3.66961 2.97436 4.07698 2.628 4.50952L6.57497 8.45685L7.39953 9.28125Z" fill="#D71F28"/>
<path d="M9.78563 22.4636V23.7927C10.5035 23.9267 11.2429 24 12.0002 24C11.1534 24 10.416 23.1466 9.78563 22.4636Z" fill="#D32030"/>
<path d="M8.75806 2.61808C8.43348 3.26835 8.15517 4.01695 7.9221 4.83513L8.75806 5.67108V2.61808Z" fill="#29337A"/>
<path d="M7.81808 18.786C8.07086 19.7531 8.38383 20.6323 8.75806 21.3817V17.8465L7.81808 18.786Z" fill="#29337A"/>
<path d="M7.16667 9.04857C7.15304 9.19332 7.14073 9.33864 7.12897 9.48456H7.60266L7.16667 9.04857Z" fill="white"/>
<path d="M8.75803 17.8464V21.3818C9.06082 21.9883 9.40338 22.5094 9.78577 22.9236V16.3416L7.72184 18.4055C7.7529 18.5344 7.78553 18.6606 7.81811 18.7864L8.75803 17.8464Z" fill="white"/>
<path d="M9.75085 14.0319H7.09443C7.14651 14.8523 7.22951 15.6595 7.34493 16.4377L9.75085 14.0319Z" fill="white"/>
<path d="M9.7854 1.07657C9.40302 1.49113 9.06046 2.01183 8.75767 2.61832V5.67132L7.92171 4.83536C7.72999 5.50741 7.56912 6.22536 7.43911 6.9766L9.78535 9.32269L9.7854 1.07657Z" fill="white"/>
<path d="M9.78559 1.07657V9.3227L7.4395 6.97646C7.32413 7.64552 7.23334 8.33935 7.16686 9.04854L7.60285 9.48453H7.12917C7.01076 10.9793 6.99921 12.5269 7.09466 14.0319H9.75109L7.34531 16.4377C7.4467 17.1194 7.5721 17.7788 7.72197 18.4054L9.78554 16.3415V22.9234C10.416 23.6067 11.1534 24 12.0002 24C12.1997 24 12.3991 23.9949 12.5989 23.9852C13.1892 23.9557 13.768 23.8831 14.333 23.7716V14.0673L20.615 20.3492C21.001 19.9509 21.36 19.5265 21.6886 19.078L17.6701 15.0594L16.642 14.0317H23.8253C23.9378 13.3708 24 12.6929 24 11.9998C24 11.1367 23.9068 10.2961 23.734 9.48453H14.369L20.4104 3.44313C20.0148 3.05452 19.5936 2.6926 19.1477 2.36144L14.3332 7.17598V0.228712C13.7682 0.117295 13.189 0.0447379 12.5987 0.0151483C12.3992 0.00547086 12.1999 -2.16307e-07 12.0004 -2.16307e-07C11.1534 -2.16307e-07 10.416 0.393328 9.78559 1.07657Z" fill="#E51D35"/>
</g>
<defs>
<clipPath id="clip0_1_118">
<rect width="24" height="24" rx="12" fill="white"/>
</clipPath>
</defs>
</svg>
